<svg width="1584" height="396" xmlns="http://www.w3.org/2000/svg">
  <!-- Background -->
  <rect width="100%" height="100%" fill="#0A192F"/>
  
  <!-- Subtle Grid Pattern -->
  <defs>
    <pattern id="grid" width="40" height="40" patternUnits="userSpaceOnUse">
      <path d="M 40 0 L 0 0 0 40" fill="none" stroke="#FFFFFF" stroke-width="0.5" stroke-opacity="0.05"/>
    </pattern>
  </defs>
  <rect width="100%" height="100%" fill="url(#grid)" />

  <!-- Background Graphic (Moved right and up slightly for better framing) -->
  <g transform="translate(1100, 20) scale(1.1)" opacity="1.0">
    <circle cx="200" cy="180" r="18" fill="#00D2FF"/>
    
    <!-- 4 Static Anchor Nodes -->
    <line x1="200" y1="180" x2="280" y2="100" stroke="#FFFFFF" stroke-width="4"/>
    <circle cx="280" cy="100" r="8" fill="#FFFFFF"/>
    <line x1="200" y1="180" x2="120" y2="100" stroke="#FFFFFF" stroke-width="4"/>
    <circle cx="120" cy="100" r="8" fill="#FFFFFF"/>
    <line x1="200" y1="180" x2="280" y2="260" stroke="#FFFFFF" stroke-width="4"/>
    <circle cx="280" cy="260" r="8" fill="#FFFFFF"/>
    <line x1="200" y1="180" x2="120" y2="260" stroke="#FFFFFF" stroke-width="4"/>
    <circle cx="120" cy="260" r="8" fill="#FFFFFF"/>
    
    <!-- 5 Dotted Line Nodes -->
    <line x1="218" y1="183" x2="279" y2="194" stroke="#00D2FF" stroke-width="2" stroke-dasharray="4"/>
    <circle cx="279" cy="194" r="5" fill="#00D2FF"/>
    <line x1="203" y1="162" x2="216" y2="86" stroke="#00D2FF" stroke-width="2" stroke-dasharray="4"/>
    <circle cx="216" cy="86" r="5" fill="#00D2FF"/>
    <line x1="182" y1="183" x2="141" y2="190" stroke="#00D2FF" stroke-width="2" stroke-dasharray="4"/>
    <circle cx="141" cy="190" r="5" fill="#00D2FF"/>
    <line x1="203" y1="198" x2="208" y2="230" stroke="#00D2FF" stroke-width="2" stroke-dasharray="4"/>
    <circle cx="208" cy="230" r="5" fill="#00D2FF"/>
    <line x1="216" y1="172" x2="277" y2="144" stroke="#00D2FF" stroke-width="2" stroke-dasharray="4"/>
    <circle cx="277" cy="144" r="5" fill="#00D2FF"/>
  </g>

  <!-- Main Text Content (Centered horizontally and vertically in the 'Safe Zone') -->
  <g transform="translate(792, 198)" text-anchor="middle">
    <text y="-30" font-family="Arial, sans-serif" font-size="72" font-weight="bold" fill="#FFFFFF" letter-spacing="4">ONEPOINT</text>
    <text y="20" font-family="Arial, sans-serif" font-size="36" font-weight="bold" fill="#00D2FF">STRATEGIC V-CTO SERVICES</text>
    
    <rect x="-300" y="45" width="600" height="2" fill="#00D2FF" fill-opacity="0.5"/>
    
    <text y="85" font-family="Arial, sans-serif" font-size="24" font-weight="normal" fill="#FFFFFF" fill-opacity="0.9">Integration • AI Automation • Technical Strategy</text>
  </g>

  <!-- Visual Accent on the right edge -->
  <rect x="1564" y="0" width="20" height="396" fill="#00D2FF" fill-opacity="0.2"/>
</svg>