<svg width="400" height="400" xmlns="http://www.w3.org/2000/svg">
  <rect width="100%" height="100%" fill="#0A192F"/>
  <!-- Central Hub -->
  <circle cx="200" cy="180" r="18" fill="#00D2FF"/>
  
  <!-- 4 Static Anchor Nodes (Balanced) -->
  <line x1="200" y1="180" x2="280" y2="100" stroke="#FFFFFF" stroke-width="4"/>
  <circle cx="280" cy="100" r="8" fill="#FFFFFF"/>
  
  <line x1="200" y1="180" x2="120" y2="100" stroke="#FFFFFF" stroke-width="4"/>
  <circle cx="120" cy="100" r="8" fill="#FFFFFF"/>
  
  <line x1="200" y1="180" x2="280" y2="260" stroke="#FFFFFF" stroke-width="4"/>
  <circle cx="280" cy="260" r="8" fill="#FFFFFF"/>
  
  <line x1="200" y1="180" x2="120" y2="260" stroke="#FFFFFF" stroke-width="4"/>
  <circle cx="120" cy="260" r="8" fill="#FFFFFF"/>
  
  <!-- 5 Varied Nodes (Dotted, Non-Overlapping, Varied Lengths) -->
  <!-- V1 -->
  <line x1="200" y1="180" x2="360" y2="180" stroke="#00D2FF" stroke-width="2" stroke-dasharray="4"/>
  <circle cx="360" cy="180" r="5" fill="#00D2FF"/>
  
  <!-- V2 -->
  <line x1="200" y1="180" x2="200" y2="130" stroke="#00D2FF" stroke-width="2" stroke-dasharray="4"/>
  <circle cx="200" cy="130" r="5" fill="#00D2FF"/>
  
  <!-- V3 -->
  <line x1="200" y1="180" x2="40" y2="180" stroke="#00D2FF" stroke-width="2" stroke-dasharray="4"/>
  <circle cx="40" cy="180" r="5" fill="#00D2FF"/>

  <!-- V4 -->
  <line x1="200" y1="180" x2="300" y2="300" stroke="#00D2FF" stroke-width="2" stroke-dasharray="4"/>
  <circle cx="300" cy="300" r="5" fill="#00D2FF"/>

  <!-- V5 -->
  <line x1="200" y1="180" x2="150" y2="230" stroke="#00D2FF" stroke-width="2" stroke-dasharray="4"/>
  <circle cx="150" cy="230" r="5" fill="#00D2FF"/>

  <text x="200" y="340" font-family="Arial, sans-serif" font-size="28" font-weight="bold" text-anchor="middle" fill="#FFFFFF">ONEPOINT</text>
  <text x="200" y="370" font-family="Arial, sans-serif" font-size="18" text-anchor="middle" fill="#00D2FF">STRATEGIC V-CTO</text>
</svg>