<svg width="400" height="400" xmlns="http://www.w3.org/2000/svg">
  <rect width="100%" height="100%" fill="#FFFFFF"/>
  <!-- Central Hub -->
  <circle cx="200" cy="180" r="18" fill="#00D2FF"/>
  
  <!-- 4 Static Anchor Nodes (Pillars) -->
  <line x1="200" y1="180" x2="280" y2="100" stroke="#0A192F" stroke-width="4"/>
  <circle cx="280" cy="100" r="8" fill="#0A192F"/>
  
  <line x1="200" y1="180" x2="120" y2="100" stroke="#0A192F" stroke-width="4"/>
  <circle cx="120" cy="100" r="8" fill="#0A192F"/>
  
  <line x1="200" y1="180" x2="280" y2="260" stroke="#0A192F" stroke-width="4"/>
  <circle cx="280" cy="260" r="8" fill="#0A192F"/>
  
  <line x1="200" y1="180" x2="120" y2="260" stroke="#0A192F" stroke-width="4"/>
  <circle cx="120" cy="260" r="8" fill="#0A192F"/>
  
  <!-- 5 Asymmetrical Dotted Nodes (Irregular Star) -->
  <!-- V1: High/Right (Angle: -70 deg, Length: 85) -->
  <line x1="206" y1="163" x2="229" y2="100" stroke="#00D2FF" stroke-width="2" stroke-dasharray="4"/>
  <circle cx="229" cy="100" r="5" fill="#00D2FF"/>
  
  <!-- V2: Far Right/Low (Angle: 15 deg, Length: 70) -->
  <line x1="217" y1="185" x2="285" y2="203" stroke="#00D2FF" stroke-width="2" stroke-dasharray="4"/>
  <circle cx="285" cy="203" r="5" fill="#00D2FF"/>
  
  <!-- V3: Bottom/Left (Angle: 110 deg, Length: 55) -->
  <line x1="194" y1="197" x2="175" y2="248" stroke="#00D2FF" stroke-width="2" stroke-dasharray="4"/>
  <circle cx="175" cy="248" r="5" fill="#00D2FF"/>

  <!-- V4: Far Left/Mid (Angle: 195 deg, Length: 80) -->
  <line x1="182" y1="185" x2="105" y2="205" stroke="#00D2FF" stroke-width="2" stroke-dasharray="4"/>
  <circle cx="105" cy="205" r="5" fill="#00D2FF"/>

  <!-- V5: High/Left Outreach (Angle: -150 deg, Length: 45) -->
  <line x1="184" y1="172" x2="150" y2="155" stroke="#00D2FF" stroke-width="2" stroke-dasharray="4"/>
  <circle cx="150" cy="155" r="5" fill="#00D2FF"/>

  <text x="200" y="340" font-family="Arial, sans-serif" font-size="28" font-weight="bold" text-anchor="middle" fill="#0A192F">ONEPOINT</text>
  <text x="200" y="370" font-family="Arial, sans-serif" font-size="18" text-anchor="middle" fill="#00D2FF">STRATEGIC V-CTO</text>
</svg>