<svg width="400" height="400" xmlns="http://www.w3.org/2000/svg">
  <rect width="100%" height="100%" fill="#FFFFFF"/>
  <!-- Central Hub -->
  <circle cx="200" cy="180" r="18" fill="#00D2FF"/>
  
  <!-- 4 Static Anchor Nodes (The Foundation) -->
  <line x1="200" y1="180" x2="280" y2="100" stroke="#0A192F" stroke-width="4"/>
  <circle cx="280" cy="100" r="8" fill="#0A192F"/>
  
  <line x1="200" y1="180" x2="120" y2="100" stroke="#0A192F" stroke-width="4"/>
  <circle cx="120" cy="100" r="8" fill="#0A192F"/>
  
  <line x1="200" y1="180" x2="280" y2="260" stroke="#0A192F" stroke-width="4"/>
  <circle cx="280" cy="260" r="8" fill="#0A192F"/>
  
  <line x1="200" y1="180" x2="120" y2="260" stroke="#0A192F" stroke-width="4"/>
  <circle cx="120" cy="260" r="8" fill="#0A192F"/>
  
  <!-- 5 Asymmetrical Varied Nodes (The Agile Layer) -->
  <!-- V1: Long right-leaning (Angle: 10 deg, Length: 80) -->
  <line x1="218" y1="183" x2="279" y2="194" stroke="#00D2FF" stroke-width="2" stroke-dasharray="4"/>
  <circle cx="279" cy="194" r="5" fill="#00D2FF"/>
  
  <!-- V2: Top-mid high (Angle: -80 deg, Length: 95) -->
  <line x1="203" y1="162" x2="216" y2="86" stroke="#00D2FF" stroke-width="2" stroke-dasharray="4"/>
  <circle cx="216" cy="86" r="5" fill="#00D2FF"/>
  
  <!-- V3: Left low (Angle: 170 deg, Length: 60) -->
  <line x1="182" y1="183" x2="141" y2="190" stroke="#00D2FF" stroke-width="2" stroke-dasharray="4"/>
  <circle cx="141" cy="190" r="5" fill="#00D2FF"/>

  <!-- V4: Bottom tight (Angle: 80 deg, Length: 50) -->
  <line x1="203" y1="198" x2="208" y2="230" stroke="#00D2FF" stroke-width="2" stroke-dasharray="4"/>
  <circle cx="208" cy="230" r="5" fill="#00D2FF"/>

  <!-- V5: Mid-upper-right (Angle: -25 deg, Length: 85) -->
  <line x1="216" y1="172" x2="277" y2="144" stroke="#00D2FF" stroke-width="2" stroke-dasharray="4"/>
  <circle cx="277" cy="144" r="5" fill="#00D2FF"/>

  <text x="200" y="340" font-family="Arial, sans-serif" font-size="28" font-weight="bold" text-anchor="middle" fill="#0A192F">ONEPOINT</text>
  <text x="200" y="370" font-family="Arial, sans-serif" font-size="18" text-anchor="middle" fill="#00D2FF">STRATEGIC V-CTO</text>
</svg>