<svg width="400" height="400" xmlns="http://www.w3.org/2000/svg">
  <rect width="100%" height="100%" fill="#FFFFFF"/>
  <!-- Central Hub -->
  <circle cx="200" cy="180" r="18" fill="#00D2FF"/>
  
  <!-- 4 Static Anchor Nodes (Balanced) -->
  <line x1="200" y1="180" x2="280" y2="100" stroke="#0A192F" stroke-width="4"/>
  <circle cx="280" cy="100" r="8" fill="#0A192F"/>
  
  <line x1="200" y1="180" x2="120" y2="100" stroke="#0A192F" stroke-width="4"/>
  <circle cx="120" cy="100" r="8" fill="#0A192F"/>
  
  <line x1="200" y1="180" x2="280" y2="260" stroke="#0A192F" stroke-width="4"/>
  <circle cx="280" cy="260" r="8" fill="#0A192F"/>
  
  <line x1="200" y1="180" x2="120" y2="260" stroke="#0A192F" stroke-width="4"/>
  <circle cx="120" cy="260" r="8" fill="#0A192F"/>
  
  <!-- 5 Varied Nodes (Dotted) -->
  <!-- V1: Long Outreach -->
  <line x1="200" y1="180" x2="360" y2="180" stroke="#00D2FF" stroke-width="2" stroke-dasharray="4"/>
  <circle cx="360" cy="180" r="5" fill="#00D2FF"/>
  
  <!-- V2: Top Mid -->
  <line x1="200" y1="180" x2="210" y2="50" stroke="#00D2FF" stroke-width="2" stroke-dasharray="4"/>
  <circle cx="210" cy="50" r="5" fill="#00D2FF"/>
  
  <!-- V3: Far Bottom Left -->
  <line x1="200" y1="180" x2="40" y2="220" stroke="#00D2FF" stroke-width="2" stroke-dasharray="4"/>
  <circle cx="40" cy="220" r="5" fill="#00D2FF"/>

  <!-- V4: Right Lower -->
  <line x1="200" y1="180" x2="320" y2="280" stroke="#00D2FF" stroke-width="2" stroke-dasharray="4"/>
  <circle cx="320" cy="280" r="5" fill="#00D2FF"/>

  <!-- V5: Top Left Outreach -->
  <line x1="200" y1="180" x2="80" y2="140" stroke="#00D2FF" stroke-width="2" stroke-dasharray="4"/>
  <circle cx="80" cy="140" r="5" fill="#00D2FF"/>

  <text x="200" y="340" font-family="Arial, sans-serif" font-size="28" font-weight="bold" text-anchor="middle" fill="#0A192F">ONEPOINT</text>
  <text x="200" y="370" font-family="Arial, sans-serif" font-size="18" text-anchor="middle" fill="#00D2FF">STRATEGIC V-CTO</text>
</svg>